<?xml version="1.0" encoding="iso-8859-1"?>
<!-- Generator: Adobe Illustrator 19.0.0, SVG Export Plug-In . SVG Version: 6.00 Build 0)  -->
<svg xmlns="http://www.w3.org/2000/svg" xmlns:xlink="http://www.w3.org/1999/xlink" version="1.1" id="Layer_1" x="0px" y="0px" viewBox="0 0 505.933 505.933" style="enable-background:new 0 0 505.933 505.933;" xml:space="preserve" width="512" height="512">
<g>
	<g>
		<path style="fill:#4AA032;" d="M234.387,255.79c54.646-54.646,94.581-118.432,119.807-186.436    c7.304-19.691,32.478-25.178,47.339-10.337c0.671,0.67,1.34,1.345,2.006,2.025c98.832,100.866,97.486,263.778-2.931,363.067    c-100.575,99.446-262.724,99.098-362.867-1.046c-0.109-0.109-0.217-0.217-0.326-0.326c-14.739-14.791-9.046-39.876,10.532-47.138    C115.952,350.373,179.74,310.437,234.387,255.79z"/>
		<circle style="fill:#70D65B;" cx="388.049" cy="154.174" r="40.768"/>
		<path style="fill:#58B741;" d="M383.182,183.007c4.88,4.88,10.68,8.26,16.85,10.15c-13.96,4.28-29.76,0.89-40.81-10.15    c-15.92-15.92-15.92-41.74,0-57.66c11.05-11.04,26.85-14.43,40.81-10.15c-6.17,1.89-11.97,5.27-16.85,10.15    C367.262,141.267,367.262,167.087,383.182,183.007z"/>
		<circle style="fill:#70D65B;" cx="372.298" cy="286.82" r="60.898"/>
		<path style="fill:#58B741;" d="M361.816,329.879c7.71,7.71,16.97,12.91,26.77,15.62c-20.45,5.66-43.28,0.45-59.35-15.62    c-23.79-23.78-23.79-62.34,0-86.12c16.07-16.07,38.9-21.28,59.35-15.62c-9.8,2.71-19.06,7.91-26.77,15.62    C338.026,267.539,338.026,306.099,361.816,329.879z"/>
		<circle style="fill:#70D65B;" cx="132.771" cy="409.453" r="40.768"/>
		<path style="fill:#58B741;" d="M127.903,438.28c4.88,4.88,10.68,8.26,16.85,10.15c-13.96,4.28-29.76,0.89-40.81-10.15    c-15.92-15.92-15.92-41.74,0-57.66c11.05-11.04,26.85-14.43,40.81-10.15c-6.17,1.89-11.97,5.27-16.85,10.15    C111.983,396.54,111.983,422.36,127.903,438.28z"/>
		<circle style="fill:#70D65B;" cx="261.887" cy="397.231" r="60.898"/>
		<path style="fill:#58B741;" d="M251.406,440.29c7.71,7.71,16.97,12.91,26.77,15.62c-20.45,5.66-43.28,0.45-59.35-15.62    c-23.79-23.78-23.79-62.34,0-86.12c16.07-16.07,38.9-21.28,59.35-15.62c-9.8,2.71-19.06,7.91-26.77,15.62    C227.616,377.95,227.616,416.51,251.406,440.29z"/>
	</g>
	<g>
		<path d="M422.181,188.305c18.819-18.82,18.819-49.442,0-68.262c-9.117-9.117-21.238-14.138-34.132-14.138    c-12.893,0-25.014,5.021-34.131,14.138c-18.819,18.819-18.819,49.441,0,68.262c9.41,9.41,21.771,14.115,34.131,14.115    C400.41,202.42,412.771,197.715,422.181,188.305z M364.526,130.65c6.283-6.284,14.638-9.744,23.523-9.744    c8.887,0,17.241,3.46,23.524,9.744c12.972,12.971,12.972,34.077,0,47.049c-12.97,12.971-34.076,12.972-47.048,0    S351.554,143.621,364.526,130.65z"/>
		<path d="M420.657,335.185c26.668-26.668,26.668-70.061,0-96.729c-26.67-26.669-70.061-26.669-96.73,0    c-26.668,26.668-26.668,70.061,0,96.729c13.335,13.334,30.85,20.001,48.365,20.001S407.323,348.52,420.657,335.185z     M318.894,286.82c0-14.263,5.555-27.673,15.641-37.758c10.085-10.085,23.495-15.64,37.758-15.64s27.673,5.554,37.758,15.64    c10.086,10.085,15.641,23.495,15.641,37.758s-5.555,27.673-15.641,37.758c-10.085,10.085-23.495,15.64-37.758,15.64    s-27.673-5.554-37.758-15.64C324.448,314.493,318.894,301.084,318.894,286.82z"/>
		<path d="M98.64,375.322c-18.819,18.819-18.819,49.441,0,68.262c9.41,9.41,21.771,14.115,34.131,14.115    c12.361,0,24.722-4.705,34.132-14.115c18.819-18.82,18.819-49.442,0-68.262c-9.117-9.117-21.238-14.138-34.131-14.138    C119.878,361.184,107.757,366.205,98.64,375.322z M156.295,432.977c-12.97,12.971-34.076,12.972-47.048,0s-12.972-34.078,0-47.049    c6.283-6.284,14.638-9.744,23.524-9.744c8.886,0,17.24,3.46,23.523,9.744C169.267,398.9,169.267,420.006,156.295,432.977z"/>
		<path d="M261.881,328.833c-18.27,0-35.445,7.114-48.364,20.033c-26.668,26.668-26.668,70.061,0,96.729    c12.919,12.918,30.095,20.033,48.364,20.033s35.446-7.115,48.365-20.033c26.668-26.668,26.668-70.061,0-96.729    C297.327,335.947,280.151,328.833,261.881,328.833z M299.639,434.989c-10.085,10.085-23.494,15.64-37.758,15.64    c-14.263,0-27.672-5.554-37.757-15.64c-10.086-10.085-15.641-23.495-15.641-37.758s5.555-27.673,15.641-37.758    c10.085-10.085,23.494-15.64,37.757-15.64c14.264,0,27.673,5.554,37.758,15.64c10.086,10.085,15.641,23.495,15.641,37.758    S309.725,424.904,299.639,434.989z"/>
		<path d="M479.696,191.627c-0.766-4.07-4.684-6.75-8.758-5.984c-4.07,0.766-6.75,4.687-5.984,8.757    c15.45,82.116-10.575,165.994-69.619,224.375c-47.076,46.547-109.421,72.157-175.62,72.157c-0.227,0-0.455,0-0.682-0.001    c-66.479-0.177-128.979-26.163-176.001-73.184l-0.305-0.306c-5.139-5.157-7.188-12.209-5.621-19.348    c1.566-7.14,6.594-12.921,13.449-15.464c18.629-6.91,37.049-14.965,54.75-23.942c3.694-1.874,5.17-6.387,3.296-10.081    c-1.872-3.694-6.388-5.171-10.081-3.297c-17.193,8.72-35.086,16.544-53.182,23.257c-11.663,4.326-20.219,14.163-22.884,26.313    c-2.643,12.044,0.964,24.437,9.645,33.148l0.338,0.338c49.832,49.832,116.086,77.379,186.556,77.566    c0.245,0,0.478,0.001,0.723,0.001c70.169-0.003,136.266-27.151,186.166-76.491C468.474,367.551,496.069,278.649,479.696,191.627z"/>
		<path d="M128.091,345.262c1.281,0,2.579-0.329,3.766-1.02c39.189-22.81,75.47-50.786,107.834-83.15    c54.196-54.197,95.086-117.83,121.535-189.131c2.572-6.937,8.183-11.819,15.391-13.396c7.221-1.578,14.37,0.519,19.612,5.754    c0.654,0.654,1.306,1.311,1.952,1.971c27.742,28.313,47.803,61.791,59.627,99.504c1.239,3.952,5.446,6.152,9.4,4.913    c3.952-1.239,6.151-5.448,4.912-9.4c-12.538-39.994-33.811-75.494-63.227-105.517c-0.684-0.697-1.37-1.389-2.062-2.081    c-8.8-8.788-21.293-12.452-33.423-9.797c-1.494,0.327-2.953,0.745-4.371,1.246c-1.028-1.978-2.217-3.961-3.563-5.936    c6.581-8.549,10.109-19.015,10.109-30.399c0-4.142-3.357-7.5-7.5-7.5s-7.5,3.358-7.5,7.5c0,7.173-1.894,13.356-5.079,18.497    C339.28,11.034,315.414-1.8,299.431,0.207c-5.906,0.738-19.643,4.75-19.643,25.999c0,10.907,4.41,19.985,12.753,26.253    c7.03,5.282,16.683,8.19,27.179,8.19c12.399,0,24.875-3.945,34.728-10.905c0.677,1.106,1.256,2.197,1.768,3.273    c-3.957,3.756-7.083,8.412-9.055,13.728c-25.692,69.263-65.419,131.082-118.078,183.741c-31.45,31.45-66.7,58.633-104.771,80.792    c-3.58,2.083-4.793,6.675-2.709,10.255C122.995,343.927,125.508,345.262,128.091,345.262z M319.72,45.65    c-7.268,0-13.721-1.841-18.169-5.183c-4.487-3.371-6.763-8.169-6.763-14.26c0-10.302,4.393-10.851,6.504-11.115    c0.62-0.078,1.263-0.115,1.933-0.115c11.331,0,29.43,10.834,41.764,23.141C337.636,43.083,328.555,45.65,319.72,45.65z"/>
	</g>
</g>















</svg>
